<svg width="30" height="30" viewBox="0 0 30 30" fill="none" xmlns="http://www.w3.org/2000/svg">
<path d="M2.59622 15.2685C2.5399 15.2685 2.48907 15.323 2.4822 15.3861L2.21571 17.9618L2.4822 20.4788C2.48907 20.5491 2.5399 20.5964 2.59622 20.5964C2.65254 20.5964 2.69925 20.5491 2.71161 20.4788L3.00146 17.9618L2.69238 15.3861C2.69238 15.3201 2.64155 15.2685 2.59072 15.2685H2.59622ZM1.56045 16.259C1.4904 16.259 1.45605 16.302 1.43957 16.3722L1.25 17.9618L1.43957 19.5271C1.43957 19.593 1.4904 19.6389 1.5426 19.6389C1.59617 19.6389 1.64288 19.5844 1.66211 19.5142L1.90388 17.9375L1.66211 16.3436C1.66211 16.2705 1.61128 16.2346 1.55908 16.2346L1.56045 16.259ZM3.65534 14.7654C3.5839 14.7654 3.51797 14.8213 3.51797 14.8901L3.2762 17.9561L3.53445 20.896C3.53445 20.9662 3.58528 21.0393 3.67045 21.0393C3.74188 21.0393 3.79271 20.9662 3.81056 20.896L4.10041 17.9375L3.81056 14.8901C3.79271 14.8199 3.73913 14.7468 3.67045 14.7468L3.65534 14.7654ZM4.75567 14.6393C4.66912 14.6393 4.59906 14.7124 4.58258 14.8013L4.36142 17.9561L4.60456 20.9992C4.62104 21.0895 4.68835 21.1626 4.77215 21.1626C4.86007 21.1626 4.92738 21.0895 4.94386 20.9848L5.21997 17.9561L4.94386 14.8213C4.94423 14.8003 4.94055 14.7793 4.93303 14.7598C4.92552 14.7402 4.91432 14.7224 4.90011 14.7075C4.88589 14.6925 4.86895 14.6807 4.85027 14.6726C4.8316 14.6646 4.81157 14.6606 4.79138 14.6608L4.75567 14.6393ZM6.07716 15.0707C6.07663 15.0464 6.07146 15.0224 6.06195 15.0002C6.05245 14.9779 6.0388 14.9579 6.02179 14.9412C6.00478 14.9245 5.98477 14.9115 5.96291 14.903C5.94104 14.8945 5.91778 14.8906 5.89446 14.8916C5.847 14.8903 5.80092 14.9083 5.76585 14.9417C5.73079 14.9751 5.70943 15.0213 5.70626 15.0707L5.45625 17.9747L5.6884 21.0393C5.68822 21.0641 5.69279 21.0887 5.70185 21.1117C5.71092 21.1347 5.72429 21.1555 5.74118 21.173C5.75808 21.1905 5.77815 21.2043 5.80023 21.2136C5.8223 21.2229 5.84593 21.2274 5.86973 21.2271C5.9549 21.2271 6.03869 21.1482 6.03869 21.0379L6.29832 17.9719L6.03869 15.0535L6.07716 15.0707ZM7.00303 13.0267C6.9493 13.0289 6.89838 13.0523 6.86061 13.0923C6.82285 13.1322 6.80108 13.1857 6.79972 13.2418L6.55795 17.9719L6.77225 21.0379C6.77225 21.1482 6.86291 21.2342 6.9783 21.2342C7.08545 21.2342 7.17749 21.1282 7.18435 21.0192L7.42338 17.9561L7.18573 13.2074C7.17611 13.0812 7.08408 12.9895 6.97967 12.9895L7.00303 13.0267ZM8.07863 11.8972C8.01911 11.8998 7.96254 11.925 7.91954 11.968C7.87654 12.011 7.85007 12.0689 7.8451 12.1309L7.63905 17.9547L7.82862 21.0006C7.82862 21.1439 7.93164 21.25 8.05253 21.25C8.17067 21.25 8.27369 21.1439 8.29155 21.0006L8.51409 17.9547L8.29293 12.1467C8.27507 12.0033 8.17204 11.8958 8.05253 11.8958L8.07863 11.8972ZM9.1872 11.3626C9.04708 11.3626 8.94543 11.4672 8.92895 11.6106L8.738 17.9174L8.92895 20.9304C8.94543 21.0737 9.04708 21.1998 9.1872 21.1998C9.2549 21.1977 9.31924 21.1685 9.36701 21.1184C9.41478 21.0683 9.44236 21.001 9.44408 20.9304L9.66799 17.9174L9.44271 11.6106C9.44271 11.4672 9.3232 11.3411 9.18445 11.3411L9.1872 11.3626ZM10.6103 11.3956C10.6109 11.358 10.6042 11.3206 10.5907 11.2857C10.5771 11.2509 10.557 11.2192 10.5315 11.1926C10.506 11.166 10.4757 11.145 10.4422 11.1309C10.4088 11.1167 10.373 11.1097 10.337 11.1103C10.2647 11.1118 10.1956 11.1422 10.1442 11.1953C10.0928 11.2484 10.063 11.3201 10.0609 11.3956L9.88916 17.9002L10.0595 20.8945C10.0801 21.0536 10.1982 21.1798 10.3535 21.1798C10.5087 21.1798 10.6296 21.0536 10.6296 20.8945L10.8164 17.9002L10.6296 11.3784L10.6103 11.3956ZM11.4689 11.2365C11.3137 11.2365 11.1763 11.3798 11.1763 11.5389L11.0046 17.9016L11.1763 20.8587C11.1763 21.0379 11.3137 21.164 11.4689 21.164C11.5485 21.1614 11.6238 21.1263 11.6788 21.0662C11.7338 21.0061 11.764 20.926 11.7629 20.8429L11.9346 17.8844L11.7423 11.5375C11.7423 11.3626 11.6049 11.215 11.4332 11.215L11.4689 11.2365ZM12.5843 11.4142C12.5415 11.414 12.4991 11.4227 12.4595 11.4397C12.42 11.4567 12.384 11.4817 12.3537 11.5133C12.3235 11.5449 12.2995 11.5824 12.2832 11.6237C12.2669 11.665 12.2586 11.7092 12.2588 11.7539L12.1406 17.9031L12.2959 20.8601C12.2959 21.0379 12.4332 21.1912 12.6201 21.1912C12.7918 21.1912 12.9319 21.0479 12.9456 20.8515L13.0844 17.9303L12.9305 11.817C12.9168 11.6206 12.7753 11.4758 12.6049 11.4758L12.5843 11.4142ZM13.9622 10.3492C13.9043 10.3138 13.8383 10.2955 13.7712 10.2962C13.7025 10.2962 13.6338 10.3148 13.583 10.3492C13.5313 10.3804 13.4883 10.425 13.4582 10.4788C13.4281 10.5326 13.4119 10.5937 13.4113 10.6559V10.7276L13.2932 17.9575L13.425 20.8859V20.896C13.4333 20.9676 13.458 21.0565 13.5075 21.111C13.5761 21.1841 13.6723 21.2342 13.7767 21.2342C13.8662 21.2292 13.9513 21.1917 14.0171 21.1282C14.0508 21.0927 14.0774 21.0507 14.0953 21.0044C14.1132 20.9581 14.1221 20.9086 14.1215 20.8587L14.1394 20.5706L14.2726 17.936L14.1174 10.6617C14.1166 10.6047 14.1023 10.5488 14.0757 10.499C14.049 10.4492 14.011 10.4071 13.9649 10.3764L13.9622 10.3492ZM15.1119 9.69416C15.0907 9.66918 15.0644 9.64952 15.0349 9.63661C15.0054 9.62371 14.9735 9.6179 14.9416 9.61962C14.8562 9.61639 14.7722 9.64259 14.7026 9.69416C14.6609 9.72876 14.6269 9.7725 14.6032 9.82228C14.5795 9.87206 14.5665 9.92668 14.5652 9.98226V10.0152L14.4086 17.9174L14.4952 19.3708L14.5666 20.787C14.5688 20.8912 14.6105 20.9902 14.6827 21.0622C14.7548 21.1343 14.8514 21.1734 14.9512 21.1712C15.051 21.1689 15.1459 21.1253 15.215 21.05C15.284 20.9748 15.3216 20.874 15.3194 20.7698L15.4911 17.8844L15.3194 9.9493C15.3179 9.88172 15.2996 9.81571 15.2664 9.75768C15.2332 9.69965 15.1861 9.6516 15.1298 9.61819L15.1119 9.69416ZM25.3666 14.1333C24.905 14.1333 24.4558 14.2365 24.0629 14.4099C23.9795 13.4489 23.6831 12.5213 23.1969 11.7005C22.7107 10.8796 22.0482 10.1881 21.2618 9.68043C20.4753 9.17279 19.5865 8.86301 18.6655 8.77559C17.7446 8.68816 16.8167 8.82549 15.9554 9.17671C15.6971 9.28421 15.6436 9.39315 15.6284 9.60815V20.8057C15.6343 20.9103 15.6754 21.0094 15.7446 21.0855C15.8137 21.1616 15.9064 21.2097 16.0062 21.2213H25.3844C25.8261 21.2255 26.2642 21.1381 26.6733 20.9642C27.0823 20.7903 27.4542 20.5333 27.7673 20.2082C28.0804 19.8831 28.3285 19.4963 28.4972 19.0703C28.6659 18.6444 28.7518 18.1877 28.75 17.7268C28.7522 16.793 28.3988 15.8965 27.7677 15.2345C27.1366 14.5724 26.2793 14.199 25.3844 14.1964" fill="white"/>
</svg>
