<svg width="18" height="18" viewBox="0 0 18 18" fill="none" xmlns="http://www.w3.org/2000/svg">
<g clip-path="url(#clip0)">
<path d="M8.81052 16.3721C7.16237 16.3721 5.51456 15.8854 4.11529 14.9601C2.29578 13.7572 1.06413 11.9498 0.64644 9.87118C0.24677 7.88184 0.67415 5.76211 1.81893 4.05514C2.92614 2.40427 4.5799 1.29298 6.47591 0.92595C8.28556 0.57558 10.2072 0.97763 11.7478 2.02857C13.2307 3.03973 14.2211 4.54066 14.5373 6.25426C14.8382 7.88456 14.461 9.60802 13.5032 10.982C12.5874 12.2962 11.24 13.1658 9.70812 13.4303C8.25649 13.6805 6.73125 13.3283 5.52408 12.4632C4.37896 11.6424 3.6313 10.4473 3.4188 9.09768C3.21837 7.82421 3.54732 6.49719 4.32167 5.45679C5.04808 4.48082 6.09137 3.8559 7.25944 3.69695C8.35526 3.5482 9.48474 3.85539 10.3579 4.54083C11.1638 5.17425 11.6648 6.06658 11.768 7.05343C11.8641 7.97568 11.5746 8.90762 10.9736 9.61108C10.4308 10.2464 9.68755 10.6195 8.88056 10.6624C8.13579 10.7011 7.38099 10.415 6.85824 9.89566C6.3972 9.43717 6.15903 8.8386 6.18827 8.21062C6.21547 7.6248 6.53524 7.03507 7.00291 6.7085C7.39748 6.43293 7.8626 6.35915 8.31191 6.50059C8.6854 6.6184 8.8928 7.01654 8.77516 7.38986C8.65752 7.76352 8.25887 7.97092 7.88606 7.85328C7.86634 7.84699 7.85461 7.84308 7.81483 7.87096C7.70739 7.94593 7.61134 8.1314 7.60454 8.2759C7.594 8.50574 7.679 8.71212 7.8575 8.88909C8.09737 9.1276 8.46151 9.26224 8.80576 9.24609C9.33752 9.21787 9.69163 8.92802 9.89512 8.69002C10.2397 8.28661 10.4128 7.73003 10.357 7.20048C10.2946 6.59868 9.98352 6.05009 9.48185 5.65586C8.90912 5.20604 8.16911 5.00357 7.45069 5.10183C6.66342 5.20876 5.95639 5.63546 5.45965 6.30305C4.91123 7.03966 4.67816 7.97772 4.8196 8.87702C4.97243 9.84823 5.51592 10.7127 6.34994 11.3104C7.25094 11.9559 8.38671 12.2194 9.46672 12.0326C10.6222 11.833 11.6426 11.172 12.3399 10.1711C13.0825 9.10567 13.375 7.77168 13.1426 6.51113C12.896 5.17221 12.1167 3.99615 10.9491 3.1997C9.71849 2.36041 8.18645 2.03928 6.74553 2.31774C5.22318 2.61252 3.89191 3.50978 2.99686 4.84462C2.06118 6.23998 1.71115 7.97024 2.03704 9.5917C2.37942 11.2971 3.39551 12.7834 4.89763 13.7771C6.45772 14.8088 8.38603 15.1869 10.188 14.8141C13.4223 14.145 15.9019 11.2091 16.0835 7.83288C16.1045 7.44188 16.4371 7.14268 16.8298 7.16308C17.2208 7.18416 17.5206 7.51821 17.4994 7.90938C17.2837 11.9176 14.3296 15.4059 10.4752 16.203C9.9264 16.316 9.36846 16.3721 8.81052 16.3721Z" fill="white"/>
</g>
<defs>
<clipPath id="clip0">
<rect width="17" height="17" fill="white" transform="translate(0.5 0.0869141)"/>
</clipPath>
</defs>
</svg>
