<svg width="30" height="30" viewBox="0 0 30 30" fill="none" xmlns="http://www.w3.org/2000/svg">
<path opacity="0.8" d="M27 5.01121C25.9553 5.76409 24.7987 6.33993 23.5745 6.71654C22.9175 5.9447 22.0444 5.39763 21.0731 5.14934C20.1019 4.90104 19.0795 4.9635 18.1441 5.32826C17.2087 5.69302 16.4056 6.34249 15.8433 7.18882C15.2809 8.03515 14.9866 9.03751 15 10.0603V11.1749C13.0829 11.2257 11.1832 10.7913 9.47019 9.91036C7.75717 9.02942 5.18182 6.12581 5.18182 6.12581C5.18182 6.12581 0.818182 16.1572 10.6364 20.6156C8.38967 22.1738 5.71326 22.955 3 22.8448C12.8182 28.4178 24.8182 22.8448 24.8182 10.0269C24.8172 9.71643 24.788 9.40673 24.7309 9.10178C25.8443 7.97993 26.63 6.56352 27 5.01121Z" fill="white"/>
</svg>
