<svg width="205" height="53" viewBox="0 0 205 53" fill="none" xmlns="http://www.w3.org/2000/svg">
<path d="M16.0328 0.288419L9.85964 14.6428H6.23862L0 0.288419H3.20657L8.04913 12.0692L12.8699 0.288419H16.0328Z" fill="white"/>
<path d="M21.4511 0.288419V14.6428H18.5499V0.288419H21.4511Z" fill="white"/>
<path d="M33.3005 0.288419C36.2526 0.288419 38.3685 0.946605 39.6482 2.26298C40.9279 3.56456 41.5678 5.28028 41.5678 7.41014C41.5678 8.75609 41.2842 9.97633 40.717 11.0708C40.1644 12.1506 39.2701 13.0158 38.034 13.6666C36.8124 14.3174 35.2346 14.6428 33.3005 14.6428H25.2295V0.288419H33.3005ZM33.2351 12.1136C35.1692 12.1136 36.5507 11.6773 37.3796 10.8046C38.2085 9.91716 38.623 8.78567 38.623 7.41014C38.623 6.0494 38.2085 4.94749 37.3796 4.10442C36.5507 3.24656 35.1692 2.81763 33.2351 2.81763H28.1307V12.1136H33.2351Z" fill="white"/>
<path d="M58.1875 12.1801V14.6428H44.4015V0.288419H58.1657V2.75107H47.3026V6.32302H56.2025V8.65256H47.3026V12.1801H58.1875Z" fill="white"/>
<path d="M69.4366 14.9312C67.5751 14.9312 65.9755 14.6354 64.6376 14.0438C63.2997 13.4521 62.2745 12.6017 61.5619 11.4924C60.8639 10.3683 60.5149 9.02972 60.5149 7.4767C60.5149 5.92367 60.8639 4.58512 61.5619 3.46102C62.2745 2.33693 63.2997 1.47907 64.6376 0.887442C65.9755 0.295814 67.5751 0 69.4366 0C71.3125 0 72.9121 0.295814 74.2355 0.887442C75.5734 1.47907 76.5913 2.33693 77.2894 3.46102C78.0019 4.58512 78.3582 5.92367 78.3582 7.4767C78.3582 9.02972 78.0019 10.3683 77.2894 11.4924C76.5913 12.6017 75.5734 13.4521 74.2355 14.0438C72.8976 14.6354 71.298 14.9312 69.4366 14.9312ZM69.4366 12.3798C71.2398 12.3798 72.6722 11.9657 73.7338 11.1374C74.7954 10.2943 75.3262 9.07409 75.3262 7.4767C75.3262 5.86451 74.7954 4.64428 73.7338 3.816C72.6722 2.97293 71.2398 2.5514 69.4366 2.5514C67.6333 2.5514 66.1864 2.97293 65.0957 3.816C64.0196 4.64428 63.4815 5.86451 63.4815 7.4767C63.4815 9.07409 64.0196 10.2943 65.0957 11.1374C66.1864 11.9657 67.6333 12.3798 69.4366 12.3798Z" fill="white"/>
<path d="M98.7328 12.1801V14.6428H86.4518V0.288419H89.353V12.1801H98.7328Z" fill="white"/>
<path d="M109.165 14.9312C107.304 14.9312 105.704 14.6354 104.366 14.0438C103.028 13.4521 102.003 12.6017 101.29 11.4924C100.592 10.3683 100.243 9.02972 100.243 7.4767C100.243 5.92367 100.592 4.58512 101.29 3.46102C102.003 2.33693 103.028 1.47907 104.366 0.887442C105.704 0.295814 107.304 0 109.165 0C111.041 0 112.641 0.295814 113.964 0.887442C115.302 1.47907 116.32 2.33693 117.018 3.46102C117.73 4.58512 118.087 5.92367 118.087 7.4767C118.087 9.02972 117.73 10.3683 117.018 11.4924C116.32 12.6017 115.302 13.4521 113.964 14.0438C112.626 14.6354 111.026 14.9312 109.165 14.9312ZM109.165 12.3798C110.968 12.3798 112.401 11.9657 113.462 11.1374C114.524 10.2943 115.055 9.07409 115.055 7.4767C115.055 5.86451 114.524 4.64428 113.462 3.816C112.401 2.97293 110.968 2.5514 109.165 2.5514C107.362 2.5514 105.915 2.97293 104.824 3.816C103.748 4.64428 103.21 5.86451 103.21 7.4767C103.21 9.07409 103.748 10.2943 104.824 11.1374C105.915 11.9657 107.362 12.3798 109.165 12.3798Z" fill="white"/>
<path d="M130.796 11.5146H123.423L122.027 14.6428H118.886L125.517 0.288419H128.658L135.355 14.6428H132.192L130.796 11.5146ZM129.683 9.05191L127.087 3.26135L124.513 9.05191H129.683Z" fill="white"/>
<path d="M145.477 0.288419C148.43 0.288419 150.545 0.946605 151.825 2.26298C153.105 3.56456 153.745 5.28028 153.745 7.41014C153.745 8.75609 153.461 9.97633 152.894 11.0708C152.341 12.1506 151.447 13.0158 150.211 13.6666C148.989 14.3174 147.412 14.6428 145.477 14.6428H137.406V0.288419H145.477ZM145.412 12.1136C147.346 12.1136 148.728 11.6773 149.557 10.8046C150.385 9.91716 150.8 8.78567 150.8 7.41014C150.8 6.0494 150.385 4.94749 149.557 4.10442C148.728 3.24656 147.346 2.81763 145.412 2.81763H140.308V12.1136H145.412Z" fill="white"/>
<path d="M159.872 0.288419V14.6428H156.971V0.288419H159.872Z" fill="white"/>
<path d="M179.945 0.288419V14.6428H177.044L166.552 4.21535V14.6428H163.651V0.288419H166.552L177.044 10.7824V0.288419H179.945Z" fill="white"/>
<path d="M200.196 14.6428H197.688C197.688 13.7701 197.818 12.402 198.08 10.5384C197.644 11.9435 196.851 13.0306 195.703 13.7997C194.554 14.554 193.129 14.9312 191.427 14.9312C189.682 14.9312 188.155 14.6502 186.846 14.0881C185.552 13.5261 184.549 12.6978 183.836 11.6033C183.138 10.5088 182.789 9.17023 182.789 7.58763C182.789 5.99023 183.16 4.62209 183.902 3.48321C184.643 2.34433 185.69 1.47907 187.043 0.887442C188.395 0.295814 189.966 0 191.754 0C193.325 0 194.685 0.22186 195.833 0.665581C196.997 1.1093 197.906 1.7453 198.56 2.57358C199.229 3.40186 199.607 4.37065 199.694 5.47995H196.902C196.611 4.56293 196.037 3.84558 195.179 3.32791C194.321 2.81023 193.179 2.5514 191.754 2.5514C189.864 2.5514 188.395 3.00991 187.348 3.92693C186.301 4.82916 185.777 6.0494 185.777 7.58763C185.777 9.12586 186.25 10.3091 187.195 11.1374C188.141 11.9657 189.588 12.3798 191.536 12.3798C192.947 12.3798 194.139 12.121 195.114 11.6033C196.102 11.0856 196.793 10.3979 197.186 9.54H191.776V7.65419H200.196V14.6428Z" fill="white"/>
<path d="M13.5241 38.6801V41.1428H1.24316V26.7884H4.14434V38.6801H13.5241Z" fill="white"/>
<path d="M23.9563 41.4312C22.0949 41.4312 20.4953 41.1354 19.1574 40.5438C17.8195 39.9521 16.7943 39.1017 16.0817 37.9924C15.3837 36.8683 15.0347 35.5297 15.0347 33.9767C15.0347 32.4237 15.3837 31.0851 16.0817 29.961C16.7943 28.8369 17.8195 27.9791 19.1574 27.3874C20.4953 26.7958 22.0949 26.5 23.9563 26.5C25.8323 26.5 27.4319 26.7958 28.7553 27.3874C30.0932 27.9791 31.1111 28.8369 31.8091 29.961C32.5217 31.0851 32.878 32.4237 32.878 33.9767C32.878 35.5297 32.5217 36.8683 31.8091 37.9924C31.1111 39.1017 30.0932 39.9521 28.7553 40.5438C27.4174 41.1354 25.8177 41.4312 23.9563 41.4312ZM23.9563 38.8798C25.7596 38.8798 27.192 38.4657 28.2536 37.6374C29.3151 36.7943 29.8459 35.5741 29.8459 33.9767C29.8459 32.3645 29.3151 31.1443 28.2536 30.316C27.192 29.4729 25.7596 29.0514 23.9563 29.0514C22.1531 29.0514 20.7061 29.4729 19.6155 30.316C18.5393 31.1443 18.0013 32.3645 18.0013 33.9767C18.0013 35.5741 18.5393 36.7943 19.6155 37.6374C20.7061 38.4657 22.1531 38.8798 23.9563 38.8798Z" fill="white"/>
<path d="M45.587 38.0146H38.2141L36.818 41.1428H33.6769L40.3082 26.7884H43.4493L50.146 41.1428H46.9831L45.587 38.0146ZM44.4745 35.5519L41.8787 29.7614L39.3048 35.5519H44.4745Z" fill="white"/>
<path d="M60.2688 26.7884C63.2208 26.7884 65.3367 27.4466 66.6165 28.763C67.8962 30.0646 68.536 31.7803 68.536 33.9101C68.536 35.2561 68.2525 36.4763 67.6853 37.5708C67.1327 38.6506 66.2384 39.5158 65.0023 40.1666C63.7807 40.8174 62.2029 41.1428 60.2688 41.1428H52.1978V26.7884H60.2688ZM60.2033 38.6136C62.1374 38.6136 63.519 38.1773 64.3479 37.3046C65.1768 36.4172 65.5912 35.2857 65.5912 33.9101C65.5912 32.5494 65.1768 31.4475 64.3479 30.6044C63.519 29.7466 62.1374 29.3176 60.2033 29.3176H55.099V38.6136H60.2033Z" fill="white"/>
<path d="M74.6635 26.7884V41.1428H71.7624V26.7884H74.6635Z" fill="white"/>
<path d="M94.7366 26.7884V41.1428H91.8354L81.3432 30.7154V41.1428H78.442V26.7884H81.3432L91.8354 37.2824V26.7884H94.7366Z" fill="white"/>
<path d="M114.987 41.1428H112.479C112.479 40.2701 112.61 38.902 112.872 37.0384C112.435 38.4435 111.643 39.5306 110.494 40.2997C109.345 41.0541 107.92 41.4312 106.218 41.4312C104.473 41.4312 102.946 41.1502 101.638 40.5881C100.343 40.0261 99.34 39.1978 98.6274 38.1033C97.9294 37.0088 97.5804 35.6702 97.5804 34.0876C97.5804 32.4902 97.9512 31.1221 98.6928 29.9832C99.4345 28.8443 100.482 27.9791 101.834 27.3874C103.186 26.7958 104.757 26.5 106.546 26.5C108.116 26.5 109.476 26.7219 110.625 27.1656C111.788 27.6093 112.697 28.2453 113.351 29.0736C114.02 29.9019 114.398 30.8707 114.486 31.98H111.694C111.403 31.0629 110.828 30.3456 109.97 29.8279C109.112 29.3102 107.971 29.0514 106.546 29.0514C104.655 29.0514 103.186 29.5099 102.139 30.4269C101.092 31.3292 100.569 32.5494 100.569 34.0876C100.569 35.6259 101.041 36.8091 101.987 37.6374C102.932 38.4657 104.379 38.8798 106.328 38.8798C107.738 38.8798 108.931 38.621 109.905 38.1033C110.894 37.5856 111.585 36.8979 111.977 36.04H106.567V34.1542H114.987V41.1428Z" fill="white"/>
<path d="M138.094 26.7884L131.921 41.1428H128.3L122.061 26.7884H125.267L130.11 38.5692L134.931 26.7884H138.094Z" fill="white"/>
<path d="M143.512 26.7884V41.1428H140.611V26.7884H143.512Z" fill="white"/>
<path d="M155.361 26.7884C158.313 26.7884 160.429 27.4466 161.709 28.763C162.989 30.0646 163.629 31.7803 163.629 33.9101C163.629 35.2561 163.345 36.4763 162.778 37.5708C162.225 38.6506 161.331 39.5158 160.095 40.1666C158.873 40.8174 157.296 41.1428 155.361 41.1428H147.29V26.7884H155.361ZM155.296 38.6136C157.23 38.6136 158.612 38.1773 159.441 37.3046C160.269 36.4172 160.684 35.2857 160.684 33.9101C160.684 32.5494 160.269 31.4475 159.441 30.6044C158.612 29.7466 157.23 29.3176 155.296 29.3176H150.192V38.6136H155.296Z" fill="white"/>
<path d="M180.248 38.6801V41.1428H166.462V26.7884H180.227V29.2511H169.364V32.823H178.263V35.1526H169.364V38.6801H180.248Z" fill="white"/>
<path d="M191.497 41.4312C189.636 41.4312 188.036 41.1354 186.699 40.5438C185.361 39.9521 184.335 39.1017 183.623 37.9924C182.925 36.8683 182.576 35.5297 182.576 33.9767C182.576 32.4237 182.925 31.0851 183.623 29.961C184.335 28.8369 185.361 27.9791 186.699 27.3874C188.036 26.7958 189.636 26.5 191.497 26.5C193.373 26.5 194.973 26.7958 196.296 27.3874C197.634 27.9791 198.652 28.8369 199.35 29.961C200.063 31.0851 200.419 32.4237 200.419 33.9767C200.419 35.5297 200.063 36.8683 199.35 37.9924C198.652 39.1017 197.634 39.9521 196.296 40.5438C194.959 41.1354 193.359 41.4312 191.497 41.4312ZM191.497 38.8798C193.301 38.8798 194.733 38.4657 195.795 37.6374C196.856 36.7943 197.387 35.5741 197.387 33.9767C197.387 32.3645 196.856 31.1443 195.795 30.316C194.733 29.4729 193.301 29.0514 191.497 29.0514C189.694 29.0514 188.247 29.4729 187.157 30.316C186.08 31.1443 185.542 32.3645 185.542 33.9767C185.542 35.5741 186.08 36.7943 187.157 37.6374C188.247 38.4657 189.694 38.8798 191.497 38.8798Z" fill="white"/>
</svg>
